# xmcd
#
# Track frame offsets:
#	150
#	14829
#	27778
#	40302
#	54441
#	69036
#	85976
#	99874
#	113588
#	123381
#	136037
#	147098
#	162305
#	175680
#	189836
#	202217
#	218267
#
# Disc length: 3133 seconds
#
# Revision: 0
# Processed by: cddbd v1.5.2PL0 Copyright (c) Steve Scherf et al.
# Submitted via: EasyCDDAExtractor 16.0.8.2
#
DISCID=d80c3b11
DTITLE=Συλλογικός δίσκος - Μέσ' στου Αιγαίου τα νησιά 4
DYEAR=1999
DGENRE=Παραδοσιακή
TTITLE0=Χατζηδάκη Αιμιλία - Μέσ' στου Αιγαίου τα νησιά
TTITLE1=Καραμπεσίνη Άννα-Σαρρή Έφη - Η βράκα
TTITLE2=Καραμπεσίνη Άννα - Νησιωτοπούλες όμορφες
TTITLE3=Σαρρή Έφη - Βάρκα θέλω ν' αρματώσω
TTITLE4=Καραμπεσίνη Άννα - Μικρή Κρητικοπούλα μου
TTITLE5=Ξυλούρης Νίκος - Μιά παντρεμένη αγαπώ
TTITLE6=Ξυλούρης Νίκος - Χορέψτε, χορέψτε (διασκ. Γ. Κονιτόπουλος)
TTITLE7=Κονιτόπουλος Γιώργος - Περνοδιαβαίνω (διασκ. Γ. Κονιτόπουλος)
TTITLE8=Σαρρή Έφη - Ο μηχανικός
TTITLE9=Καβακοπούλου Ειρήνη - Μπαρμπα Θοδωρή
TTITLE10=Σπανού Θάλεια - Περήφανα νησιά μου
TTITLE11=Κονιτοπούλου Ειρήνη - Να με τρελλάνεις θέλεις
TTITLE12=Καραμπεσίνη Άννα-Σαρρή Έφη - Το μελαχροινό
TTITLE13=Καβακοπούλου Ειρήνη - Άνοιξε το παράθυρο
TTITLE14=Καραμπεσίνη Άννα - Αραμπάς περνά
TTITLE15=Χατζηδάκη Αιμιλία - Φύσα μαϊστραλάκι μου
TTITLE16=Καραμπεσίνη Άννα-Σαρρή Έφη - Έλα μπρόβαλε
EXTD=
EXTT0=
EXTT1=
EXTT2=
EXTT3=
EXTT4=
EXTT5=
EXTT6=
EXTT7=
EXTT8=
EXTT9=
EXTT10=
EXTT11=
EXTT12=
EXTT13=
EXTT14=
EXTT15=
EXTT16=
PLAYORDER=
